<?xml version="1.0" encoding="UTF-8" standalone="no"?>
<svg
  fill="none"
  width="48"
  height="48"
  version="1.1"
  id="svg4"
  xmlns="http://www.w3.org/2000/svg"
  xmlns:svg="http://www.w3.org/2000/svg"
>
  <style>
  .astro-fill {
    fill: #17191e;
  }
  @media (prefers-color-scheme: dark) {
    .astro-fill {
      fill: #fff;
    }
  }
  </style>
  <path
    class="astro-fill"
    d="m 17.344,40.88 c -2.192,-1.984 -2.832,-6.144 -1.92,-9.168 1.584,1.92 3.76,2.512 6,2.848 3.488,0.528 6.896,0.32 10.128,-1.248 0.368,-0.192 0.704,-0.432 1.12,-0.672 0.288,0.88 0.368,1.76 0.272,2.672 A 7.296,7.296 0 0 1 29.84,40.48 c -0.688,0.512 -1.44,0.976 -2.144,1.456 -2.208,1.504 -2.816,3.248 -1.984,5.792 L 25.792,48 a 5.808,5.808 0 0 1 -2.56,-2.208 6.192,6.192 0 0 1 -1.008,-3.36 c 0,-0.592 0,-1.184 -0.08,-1.76 -0.208,-1.44 -0.88,-2.08 -2.128,-2.112 a 2.496,2.496 0 0 0 -2.608,2.016 c 0,0.096 -0.048,0.192 -0.08,0.32 z"
    id="path1"
    style="stroke-width: 1.6"
  />
  <path
    fill="url(#a)"
    d="m 17.344,40.88 c -2.192,-1.984 -2.832,-6.144 -1.92,-9.168 1.584,1.92 3.76,2.512 6,2.848 3.488,0.528 6.896,0.32 10.128,-1.248 0.368,-0.192 0.704,-0.432 1.12,-0.672 0.288,0.88 0.368,1.76 0.272,2.672 A 7.296,7.296 0 0 1 29.84,40.48 c -0.688,0.512 -1.44,0.976 -2.144,1.456 -2.208,1.504 -2.816,3.248 -1.984,5.792 L 25.792,48 a 5.808,5.808 0 0 1 -2.56,-2.208 6.192,6.192 0 0 1 -1.008,-3.36 c 0,-0.592 0,-1.184 -0.08,-1.76 -0.208,-1.44 -0.88,-2.08 -2.128,-2.112 a 2.496,2.496 0 0 0 -2.608,2.016 c 0,0.096 -0.048,0.192 -0.08,0.32 z"
    id="path2"
    style="fill: url(#a); stroke-width: 1.6"
  />
  <path
    class="astro-fill"
    d="m 4.944,31.216 c 0,0 6.432,-3.12 12.88,-3.12 l 4.864,-15.04 c 0.176,-0.72 0.704,-1.216 1.312,-1.216 0.592,0 1.12,0.496 1.312,1.216 l 4.864,15.04 c 7.632,0 12.88,3.12 12.88,3.12 L 32.112,1.456 C 31.792,0.56 31.264,0 30.544,0 H 17.44 c -0.704,0 -1.216,0.56 -1.552,1.44 z"
    id="path3"
    style="stroke-width: 1.6"
  />
  <defs
    id="defs4"
  >
    <linearGradient
      id="a"
      x1="6.3299999"
      x2="19.43"
      y1="40.799999"
      y2="34.599998"
      gradientUnits="userSpaceOnUse"
      gradientTransform="matrix(1.6,0,0,1.6,4.912,-17.28)"
    >
      <stop
        stop-color="#D83333"
        id="stop3"
      />
      <stop
        offset="1"
        stop-color="#F041FF"
        id="stop4"
      />
    </linearGradient>
  </defs>
</svg>
