<?xml version="1.0" encoding="UTF-8" standalone="no"?>
<svg
  width="101.479"
  height="82.268997"
  viewBox="0 0 101.479 82.268997"
  fill="none"
  version="1.1"
  id="svg7"
  sodipodi:docname="logo.svg"
  inkscape:version="1.4 (e7c3feb1, 2024-10-09)"
  xmlns:inkscape="http://www.inkscape.org/namespaces/inkscape"
  xmlns:sodipodi="http://sodipodi.sourceforge.net/DTD/sodipodi-0.dtd"
  xmlns="http://www.w3.org/2000/svg"
  xmlns:svg="http://www.w3.org/2000/svg"
>
  <defs
    id="defs7"
  />
  <sodipodi:namedview
    id="namedview7"
    pagecolor="#ffffff"
    bordercolor="#000000"
    borderopacity="0.25"
    inkscape:showpageshadow="2"
    inkscape:pageopacity="0.0"
    inkscape:pagecheckerboard="true"
    inkscape:deskcolor="#d1d1d1"
    inkscape:zoom="16.241071"
    inkscape:cx="74.687193"
    inkscape:cy="19.025839"
    inkscape:window-width="1800"
    inkscape:window-height="1033"
    inkscape:window-x="0"
    inkscape:window-y="44"
    inkscape:window-maximized="1"
    inkscape:current-layer="svg7"
  />
  <rect
    style="fill: #ffffff; fill-opacity: 1; stroke: #9ecd54; stroke-width: 4.5; stroke-linecap: round; stroke-linejoin: round; stroke-dasharray: none; stroke-opacity: 1"
    id="rect1-1"
    width="88.479385"
    height="69.268829"
    x="6.5"
    y="6.5"
    ry="4.9873557"
  />
  <g
    id="g1"
    transform="translate(9.9480484,-25.209731)"
  >
    <path
      d="m 55.0804,63.1186 c 0.9092,2.0782 3.1174,6.4686 4.6761,7.4038"
      stroke="#65a30d"
      stroke-opacity="0.5"
      stroke-width="3"
      stroke-linecap="round"
      id="path3"
    />
    <path
      d="M 64.7762,46.1724 C 57.3724,38.379 47.2409,44.2241 43.7338,48.9001 32.0436,43.8344 25.129,46.3632 19.1844,58.2523 c -2.338,4.6761 -6.2347,4.6761 -10.13148,7.0141 -0.62348,2.4939 4.41628,3.3772 7.01408,3.5071 0,0 0.3897,8.1831 5.0658,12.8592 5.4135,5.4135 10.9108,3.5071 12.4695,5.0657 1.5587,1.5587 3.5071,5.4555 7.7935,6.2348 4.2864,0.7794 10.1315,-5.4554 7.0141,-8.5728 1.9483,-0.3897 3.1174,-1.9484 4.6761,-2.7277 1.9483,3.5071 10.9108,1.7707 10.9108,-1.5587 0,-3.8967 -5.4554,-12.4695 -7.4038,-14.4179 10.8176,0 16.1558,-11.0914 8.1832,-19.4837 z"
      fill="#d9f99d"
      stroke="#365314"
      stroke-width="3"
      stroke-linejoin="round"
      id="path4"
    />
    <path
      d="m 57.762,65.6561 c -1.5587,0 -5.1436,-0.4676 -7.0141,-2.338"
      stroke="#65a30d"
      stroke-opacity="0.5"
      stroke-width="3"
      stroke-linecap="round"
      id="path5"
    />
    <path
      d="m 30.0952,80.4637 c 0.9093,2.0782 3.1174,6.4686 4.6761,7.4038"
      stroke="#65a30d"
      stroke-opacity="0.5"
      stroke-width="3"
      stroke-linecap="round"
      id="path6"
    />
    <circle
      cx="54.644699"
      cy="54.355598"
      r="1.94837"
      fill="#000000"
      id="circle6"
    />
    <circle
      cx="63.217499"
      cy="51.238201"
      r="1.94837"
      fill="#000000"
      id="circle7"
    />
  </g>
  <rect
    style="fill: #d9f99d; fill-opacity: 1; stroke: #9ecd54; stroke-width: 0.8; stroke-linecap: round; stroke-linejoin: round; stroke-dasharray: none; stroke-opacity: 1"
    id="rect3"
    width="20.811436"
    height="9.6668501"
    x="73.983238"
    y="7.3620138"
    ry="0.86096066"
  />
  <rect
    style="fill: none; fill-opacity: 1; stroke: #365314; stroke-width: 3; stroke-linecap: round; stroke-linejoin: round; stroke-dasharray: none; stroke-opacity: 1"
    id="rect1"
    width="88.479385"
    height="69.268829"
    x="6.5"
    y="6.5"
    ry="4.9873557"
  />
  <path
    d="M 76.053447,12.593457 V 8.7107929 h 1.375999 q 0.405333,0 0.666667,0.1439999 0.266666,0.1386666 0.394666,0.3733331 0.128,0.2293332 0.128,0.5119997 0,0.2506665 -0.09067,0.4159994 -0.08533,0.16 -0.229333,0.256 -0.144,0.096 -0.314666,0.144 v 0.03733 q 0.181333,0.01067 0.362666,0.128 0.181333,0.112 0.304,0.325333 0.122667,0.208 0.122667,0.512 0,0.293333 -0.138667,0.528 -0.133333,0.234666 -0.421333,0.373333 -0.282667,0.133333 -0.741333,0.133333 z m 0.496,-0.437333 h 0.911999 q 0.453333,0 0.64,-0.170666 0.192,-0.176 0.192,-0.432 0,-0.192 -0.101333,-0.357333 -0.096,-0.165334 -0.277334,-0.261333 -0.181333,-0.101334 -0.431999,-0.101334 h -0.933333 z m 0,-1.738665 h 0.853333 q 0.309333,0 0.522666,-0.181334 0.218667,-0.186666 0.218667,-0.4853328 0,-0.2506665 -0.176,-0.4266664 Q 77.797446,9.1481259 77.41878,9.1481259 h -0.869333 z"
    id="text1"
    style="font-size: 5.33333px; font-family: 'Sarasa Gothic K'; -inkscape-font-specification: 'Sarasa Gothic K'; fill: #365314; stroke-width: 3; stroke-linecap: round; stroke-linejoin: round"
    aria-label="B"
  />
  <path
    d="m 80.666771,12.657457 q -0.394666,0 -0.693333,-0.186666 -0.298666,-0.192 -0.464,-0.528 -0.165333,-0.341333 -0.165333,-0.789333 0,-0.453333 0.165333,-0.789333 0.165334,-0.341333 0.464,-0.5279995 0.298667,-0.1919999 0.693333,-0.1919999 0.4,0 0.698666,0.1919999 0.298667,0.1866665 0.464,0.5279995 0.170667,0.336 0.170667,0.789333 0,0.448 -0.170667,0.789333 -0.165333,0.336 -0.464,0.528 -0.298666,0.186666 -0.698666,0.186666 z m 0,-0.421333 q 0.293333,0 0.485333,-0.149333 0.192,-0.154667 0.282667,-0.4 0.09067,-0.245333 0.09067,-0.533333 0,-0.288 -0.09067,-0.533333 -0.09067,-0.250666 -0.282667,-0.4 -0.192,-0.154666 -0.485333,-0.154666 -0.288,0 -0.48,0.154666 -0.186666,0.149334 -0.277333,0.4 -0.09067,0.245333 -0.09067,0.533333 0,0.288 0.09067,0.533333 0.09067,0.245333 0.277333,0.4 0.192,0.149333 0.48,0.149333 z"
    id="text2"
    style="font-size: 5.33333px; font-family: 'Sarasa Gothic K'; -inkscape-font-specification: 'Sarasa Gothic K'; fill: #365314; stroke-width: 3; stroke-linecap: round; stroke-linejoin: round"
    aria-label="o"
  />
  <path
    d="m 83.829442,9.681459 v 0.4 h -0.597333 v 1.754665 q 0,0.197334 0.07467,0.288 0.08,0.09067 0.266667,0.09067 0.04267,0 0.111999,-0.01067 0.06933,-0.01067 0.128,-0.02133 l 0.096,0.394666 q -0.07467,0.02667 -0.165333,0.03733 -0.09067,0.016 -0.181333,0.016 -0.378667,0 -0.592,-0.197334 -0.208,-0.202666 -0.208,-0.559999 v -1.791999 h -0.437333 v -0.4 h 0.437333 V 8.988126 h 0.469333 v 0.693333 z"
    id="text3"
    style="font-size: 5.33333px; font-family: 'Sarasa Gothic K'; -inkscape-font-specification: 'Sarasa Gothic K'; fill: #365314; stroke-width: 3; stroke-linecap: round; stroke-linejoin: round"
    aria-label="t"
  />
  <path
    d="M 84.485439,12.593457 V 8.7107929 h 0.495999 v 1.3279991 l -0.01067,0.714666 q 0.16,-0.208 0.325333,-0.399999 0.165333,-0.197334 0.346666,-0.3893335 l 1.157333,-1.2533326 h 0.650666 l -1.567999,1.6799991 1.567999,2.202665 h -0.586666 l -1.322666,-1.866665 -0.56,0.591999 v 1.274666 z"
    id="text4"
    style="font-size: 5.33333px; font-family: 'Sarasa Gothic K'; -inkscape-font-specification: 'Sarasa Gothic K'; fill: #365314; stroke-width: 3; stroke-linecap: round; stroke-linejoin: round"
    aria-label="K"
  />
  <path
    d="M 88.096114,12.593457 V 9.681459 h 0.469333 v 2.911998 z m 0.24,-3.3866644 q -0.133333,0 -0.229333,-0.090667 -0.096,-0.090667 -0.096,-0.2186666 0,-0.1333332 0.096,-0.2186665 0.096,-0.090667 0.229333,-0.090667 0.133333,0 0.229333,0.090667 0.096,0.085333 0.096,0.2186665 0,0.1279999 -0.096,0.2186666 -0.096,0.090667 -0.229333,0.090667 z"
    id="text5"
    style="font-size: 5.33333px; font-family: 'Sarasa Gothic K'; -inkscape-font-specification: 'Sarasa Gothic K'; fill: #365314; stroke-width: 3; stroke-linecap: round; stroke-linejoin: round"
    aria-label="i"
  />
  <path
    d="m 90.533445,9.681459 v 0.4 h -0.597333 v 1.754665 q 0,0.197334 0.07467,0.288 0.08,0.09067 0.266667,0.09067 0.04267,0 0.112,-0.01067 0.06933,-0.01067 0.128,-0.02133 l 0.096,0.394666 q -0.07467,0.02667 -0.165334,0.03733 -0.09067,0.016 -0.181333,0.016 -0.378666,0 -0.591999,-0.197334 -0.208,-0.202666 -0.208,-0.559999 v -1.791999 h -0.437333 v -0.4 h 0.437333 V 8.988126 h 0.469333 v 0.693333 z"
    id="text6"
    style="font-size: 5.33333px; font-family: 'Sarasa Gothic K'; -inkscape-font-specification: 'Sarasa Gothic K'; fill: #365314; stroke-width: 3; stroke-linecap: round; stroke-linejoin: round"
    aria-label="t"
  />
  <path
    d="m 76.774643,15.292119 q -0.138667,0 -0.224,-0.048 -0.08533,-0.048 -0.130667,-0.106666 -0.04533,-0.06133 -0.06933,-0.101334 h -0.02667 v 0.224 h -0.226667 v -1.941335 h 0.234667 v 0.720001 h 0.01867 q 0.024,-0.04 0.06667,-0.09867 0.04533,-0.06133 0.128001,-0.106667 0.08533,-0.048 0.226667,-0.048 0.181333,0 0.32,0.09333 0.138667,0.09067 0.218667,0.258667 0.08,0.168001 0.08,0.400001 0,0.229333 -0.08,0.4 -0.07733,0.168001 -0.216,0.261334 -0.138667,0.09333 -0.320001,0.09333 z m -0.03733,-0.210666 q 0.138667,0 0.229333,-0.072 0.09333,-0.07467 0.138667,-0.197333 0.04533,-0.125334 0.04533,-0.277334 0,-0.152 -0.04533,-0.272 -0.04533,-0.122667 -0.138667,-0.194667 -0.09067,-0.072 -0.229333,-0.072 -0.2,0 -0.304001,0.149333 -0.104,0.146667 -0.104,0.389334 0,0.242667 0.104,0.394667 0.106667,0.152001 0.304001,0.152001 z"
    id="text7"
    style="font-size: 2.66667px; font-family: 'Sarasa Gothic K'; -inkscape-font-specification: 'Sarasa Gothic K'; fill: #365314; stroke-width: 3; stroke-linecap: round; stroke-linejoin: round"
    aria-label="b"
  />
  <path
    d="m 77.651976,15.78812 0.06133,-0.202667 0.024,0.0053 q 0.109334,0.02933 0.186667,-0.008 0.07733,-0.03733 0.130667,-0.194667 l 0.04267,-0.120001 -0.557334,-1.464001 h 0.258667 l 0.309333,0.864001 q 0.032,0.09333 0.05867,0.189333 0.02667,0.09333 0.05333,0.184 0.024,-0.09067 0.05067,-0.184 0.02667,-0.096 0.06133,-0.189333 l 0.312,-0.864001 h 0.256 l -0.640001,1.674668 q -0.06667,0.170667 -0.173333,0.253334 -0.106667,0.08267 -0.261334,0.08267 -0.064,0 -0.109333,-0.01067 -0.04533,-0.008 -0.064,-0.016 z"
    id="text8"
    style="font-size: 2.66667px; font-family: 'Sarasa Gothic K'; -inkscape-font-specification: 'Sarasa Gothic K'; fill: #365314; stroke-width: 3; stroke-linecap: round; stroke-linejoin: round"
    aria-label="y"
  />
  <path
    d="m 79.95331,15.260119 v -1.941335 h 1.173335 v 0.218667 H 80.20131 v 0.666667 h 0.837335 v 0.218667 H 80.20131 v 0.837334 z"
    id="text9"
    style="font-size: 2.66667px; font-family: 'Sarasa Gothic K'; -inkscape-font-specification: 'Sarasa Gothic K'; fill: #365314; stroke-width: 3; stroke-linecap: round; stroke-linejoin: round"
    aria-label="F"
  />
  <path
    d="m 82.003978,15.292119 q -0.210667,0 -0.365334,-0.09333 -0.152,-0.096 -0.234667,-0.264 -0.08267,-0.168001 -0.08267,-0.392001 0,-0.224 0.08,-0.392 0.08,-0.170667 0.226667,-0.266667 0.149333,-0.09867 0.346667,-0.09867 0.117333,0 0.229333,0.04 0.112,0.03733 0.202667,0.122667 0.09333,0.08533 0.146667,0.226667 0.056,0.138667 0.056,0.338667 v 0.09867 h -1.050668 q 0.008,0.226667 0.128,0.349333 0.122667,0.122667 0.317334,0.122667 0.128,0 0.221334,-0.056 0.09333,-0.05867 0.133333,-0.168 l 0.226667,0.06133 q -0.05067,0.165334 -0.205333,0.269334 -0.152001,0.101333 -0.376001,0.101333 z m -0.445334,-0.877334 h 0.813335 q -0.01867,-0.186667 -0.117334,-0.304 -0.09867,-0.117334 -0.28,-0.117334 -0.122667,0 -0.213334,0.05867 -0.09067,0.05867 -0.144,0.154667 -0.05067,0.096 -0.05867,0.208 z"
    id="text10"
    style="font-size: 2.66667px; font-family: 'Sarasa Gothic K'; -inkscape-font-specification: 'Sarasa Gothic K'; fill: #365314; stroke-width: 3; stroke-linecap: round; stroke-linejoin: round"
    aria-label="e"
  />
  <path
    d="m 83.491984,15.292119 q -0.181334,0 -0.322668,-0.09333 -0.138666,-0.09333 -0.216,-0.261334 -0.07733,-0.170667 -0.07733,-0.4 0,-0.232 0.07733,-0.400001 0.08,-0.168 0.218667,-0.258667 0.138667,-0.09333 0.320001,-0.09333 0.141333,0 0.224,0.048 0.08533,0.04533 0.130667,0.106667 0.04533,0.05867 0.06667,0.09867 h 0.01867 v -0.720001 h 0.234667 v 1.941335 h -0.226667 v -0.224 h -0.02667 q -0.02133,0.04 -0.06933,0.101334 -0.04533,0.05867 -0.130667,0.106666 -0.08267,0.048 -0.221333,0.048 z m 0.03467,-0.210666 q 0.197334,0 0.301334,-0.152001 0.106667,-0.152 0.106667,-0.394667 0,-0.242667 -0.104,-0.389334 -0.101334,-0.149333 -0.304001,-0.149333 -0.138667,0 -0.232,0.072 -0.09067,0.072 -0.136,0.194667 -0.04533,0.12 -0.04533,0.272 0,0.152 0.04533,0.277334 0.048,0.122667 0.138667,0.197333 0.09333,0.072 0.229333,0.072 z"
    id="text11"
    style="font-size: 2.66667px; font-family: 'Sarasa Gothic K'; -inkscape-font-specification: 'Sarasa Gothic K'; fill: #365314; stroke-width: 3; stroke-linecap: round; stroke-linejoin: round"
    aria-label="d"
  />
  <path
    d="m 84.577312,15.260119 v -1.456001 h 0.234667 v 1.456001 z m 0.120001,-1.693335 q -0.06667,0 -0.114667,-0.04533 -0.048,-0.04533 -0.048,-0.109334 0,-0.06667 0.048,-0.109333 0.048,-0.04533 0.114667,-0.04533 0.06667,0 0.114666,0.04533 0.048,0.04267 0.048,0.109333 0,0.064 -0.048,0.109334 -0.048,0.04533 -0.114666,0.04533 z"
    id="text12"
    style="font-size: 2.66667px; font-family: 'Sarasa Gothic K'; -inkscape-font-specification: 'Sarasa Gothic K'; fill: #365314; stroke-width: 3; stroke-linecap: round; stroke-linejoin: round"
    aria-label="i"
  />
  <path
    d="m 85.899987,13.804118 v 0.2 h -0.336001 v 1.256001 h -0.234667 v -1.256001 h -0.285334 v -0.2 h 0.285334 v -0.194667 q 0,-0.125334 0.05867,-0.208001 0.06133,-0.08533 0.154667,-0.128 0.096,-0.04533 0.2,-0.04533 0.08533,0 0.138667,0.016 0.056,0.01333 0.08,0.024 l -0.064,0.2 q -0.01867,-0.0053 -0.048,-0.01333 -0.02933,-0.008 -0.07733,-0.008 -0.109333,0 -0.16,0.056 -0.048,0.05333 -0.048,0.16 v 0.141334 z"
    id="text13"
    style="font-size: 2.66667px; font-family: 'Sarasa Gothic K'; -inkscape-font-specification: 'Sarasa Gothic K'; fill: #365314; stroke-width: 3; stroke-linecap: round; stroke-linejoin: round"
    aria-label="f"
  />
  <path
    d="m 86.185324,15.78812 0.06133,-0.202667 0.024,0.0053 q 0.109334,0.02933 0.186667,-0.008 0.07733,-0.03733 0.130667,-0.194667 l 0.04267,-0.120001 -0.557334,-1.464001 h 0.258667 l 0.309333,0.864001 q 0.032,0.09333 0.05867,0.189333 0.02667,0.09333 0.05333,0.184 0.024,-0.09067 0.05067,-0.184 0.02667,-0.096 0.06133,-0.189333 l 0.312,-0.864001 h 0.256 l -0.64,1.674668 q -0.06667,0.170667 -0.173334,0.253334 -0.106667,0.08267 -0.261334,0.08267 -0.064,0 -0.109333,-0.01067 -0.04533,-0.008 -0.064,-0.016 z"
    id="text14"
    style="font-size: 2.66667px; font-family: 'Sarasa Gothic K'; -inkscape-font-specification: 'Sarasa Gothic K'; fill: #365314; stroke-width: 3; stroke-linecap: round; stroke-linejoin: round"
    aria-label="y"
  />
  <path
    style="fill: none; fill-opacity: 1; stroke: #365314; stroke-width: 3; stroke-linecap: round; stroke-linejoin: round; stroke-dasharray: none; stroke-opacity: 1"
    d="M 49.436779,8.1921379 V 19.090434"
    id="path7"
  />
  <path
    style="fill: none; fill-opacity: 1; stroke: #365314; stroke-width: 3; stroke-linecap: round; stroke-linejoin: round; stroke-dasharray: none; stroke-opacity: 1"
    d="M 7.1772951,40.672623 H 15.982132"
    id="path8"
  />
  <path
    style="fill: none; fill-opacity: 1; stroke: #365314; stroke-width: 3; stroke-linecap: round; stroke-linejoin: round; stroke-dasharray: none; stroke-opacity: 1"
    d="M 52.371359,75.584114 V 70.719903"
    id="path9"
  />
  <path
    style="fill: none; fill-opacity: 1; stroke: #365314; stroke-width: 3; stroke-linecap: round; stroke-linejoin: round; stroke-dasharray: none; stroke-opacity: 1"
    d="M 93.378507,55.142113 H 76.877132"
    id="path10"
  />
  <path
    style="fill: none; fill-opacity: 1; stroke: #365314; stroke-width: 3; stroke-linecap: round; stroke-linejoin: round; stroke-dasharray: none; stroke-opacity: 1"
    d="M 94.055802,30.082189 H 81.495054"
    id="path11"
  />
</svg>
