<svg aria-label="Sovereign Tech Agency" role="img"  width="104" height="33" viewBox="0 0 104 33" fill="#000" xmlns="http://www.w3.org/2000/svg"><path d="M2.41668 11.523C1.83847 11.2162 1.37535 10.781 1.0273 10.2176C0.679252 9.65411 0.494002 9.01534 0.471547 8.30126H2.81244C2.8349 8.63598 2.9191 8.92887 3.06506 9.17992C3.21101 9.43096 3.40188 9.62901 3.63765 9.77406C3.87342 9.91911 4.15411 9.99163 4.4797 9.99163H5.25438C5.50138 9.99163 5.73996 9.93584 5.97012 9.82427C6.20028 9.71269 6.38553 9.55091 6.52588 9.33891C6.66622 9.12692 6.73639 8.87029 6.73639 8.56904C6.73639 8.24547 6.63815 7.98326 6.44167 7.78243C6.24519 7.58159 5.99538 7.42538 5.69225 7.31381C5.38911 7.20223 4.96247 7.06834 4.41233 6.91213C3.63765 6.72245 2.99489 6.52162 2.48404 6.30962C1.9732 6.09763 1.53534 5.75453 1.17045 5.28033C0.80556 4.80614 0.623116 4.16736 0.623116 3.36402C0.623116 2.71688 0.785912 2.13668 1.1115 1.62343C1.4371 1.11018 1.87777 0.711297 2.43352 0.426778C2.98927 0.142259 3.59274 0 4.24392 0H5.08597C5.73716 0 6.33501 0.131102 6.87954 0.393305C7.42406 0.655509 7.86473 1.04324 8.20155 1.55649C8.53837 2.06973 8.73485 2.67782 8.79099 3.38075H6.46693C6.39957 2.93445 6.24239 2.59135 5.99538 2.35146C5.74838 2.11158 5.41718 1.99163 5.00177 1.99163H4.26077C4.04745 1.99163 3.83974 2.04184 3.63765 2.14226C3.43556 2.24268 3.27557 2.38494 3.15768 2.56904C3.03979 2.75314 2.98085 2.96792 2.98085 3.21339C2.98085 3.5258 3.07909 3.77964 3.27557 3.9749C3.47205 4.17015 3.71624 4.32357 4.00815 4.43515C4.30006 4.54672 4.72108 4.67504 5.27122 4.82008C6.06836 4.99861 6.71955 5.19665 7.22478 5.41423C7.73 5.6318 8.17068 5.98326 8.54679 6.46862C8.92291 6.95397 9.11096 7.61506 9.11096 8.45188C9.11096 9.16597 8.94255 9.78801 8.60574 10.318C8.26892 10.848 7.80579 11.258 7.21635 11.5481C6.62692 11.8382 5.95048 11.9833 5.18702 11.9833H4.36181C3.64326 11.9833 2.99489 11.8298 2.41668 11.523ZM11.4855 11.4226C10.9129 11.0488 10.4639 10.53 10.1383 9.86611C9.81267 9.20223 9.64987 8.45746 9.64987 7.6318C9.64987 6.80614 9.81267 6.06137 10.1383 5.39749C10.4639 4.73361 10.9129 4.21478 11.4855 3.841C12.0581 3.46722 12.6981 3.28033 13.4054 3.28033H14.079C14.7864 3.28033 15.4263 3.46722 15.9989 3.841C16.5715 4.21478 17.0206 4.73361 17.3462 5.39749C17.6718 6.06137 17.8346 6.80614 17.8346 7.6318C17.8346 8.45746 17.6718 9.20223 17.3462 9.86611C17.0206 10.53 16.5743 11.0488 16.0073 11.4226C15.4404 11.7964 14.8032 11.9833 14.0959 11.9833H13.4223C12.7037 11.9833 12.0581 11.7964 11.4855 11.4226ZM14.8369 9.79916C15.0839 9.58159 15.2804 9.28033 15.4263 8.8954C15.5723 8.51046 15.6453 8.08926 15.6453 7.6318C15.6453 7.17434 15.5723 6.75314 15.4263 6.3682C15.2804 5.98326 15.0811 5.68201 14.8285 5.46444C14.5759 5.24686 14.298 5.13808 13.9948 5.13808H13.4896C13.1865 5.13808 12.9086 5.24407 12.656 5.45607C12.4034 5.66806 12.2041 5.96653 12.0581 6.35146C11.9122 6.7364 11.8392 7.16318 11.8392 7.6318C11.8392 8.10042 11.9122 8.5272 12.0581 8.91213C12.2041 9.29707 12.4034 9.59554 12.656 9.80753C12.9086 10.0195 13.1865 10.1255 13.4896 10.1255H14.0117C14.3148 10.1255 14.5899 10.0167 14.8369 9.79916ZM17.8163 3.41423H20.0393L21.6898 8.38494C21.7459 8.5523 21.8329 8.63598 21.9508 8.63598C22.0687 8.63598 22.1557 8.5523 22.2118 8.38494L23.8117 3.41423H26.0347L23.037 11.8494H20.814L17.8163 3.41423ZM28.3742 8.24268C28.2956 8.32636 28.2732 8.44073 28.3069 8.58577C28.3518 8.85356 28.4416 9.10739 28.5763 9.34728C28.711 9.58717 28.8823 9.78522 29.09 9.94142C29.2977 10.0976 29.5419 10.1757 29.8225 10.1757H30.4288C30.7769 10.1757 31.0772 10.0642 31.3298 9.841C31.5824 9.61785 31.7424 9.33891 31.8098 9.00418H33.8812C33.8251 9.57322 33.6342 10.0837 33.3086 10.5356C32.983 10.9874 32.5676 11.3417 32.0624 11.5983C31.5572 11.855 31.007 11.9833 30.412 11.9833H29.8057C29.0984 11.9833 28.4584 11.7992 27.8858 11.431C27.3132 11.0628 26.8642 10.5439 26.5386 9.87448C26.213 9.20502 26.0502 8.45188 26.0502 7.61506C26.0502 6.77824 26.2242 5.99442 26.5722 5.33054C26.9203 4.66667 27.3778 4.159 27.9448 3.80753C28.5118 3.45607 29.1208 3.28033 29.772 3.28033H30.3951C31.0688 3.28033 31.6751 3.46165 32.214 3.82427C32.7529 4.18689 33.1767 4.68061 33.4855 5.30544C33.7942 5.93027 33.9486 6.61646 33.9486 7.36402C33.9486 7.5537 33.9374 7.75453 33.9149 7.96653V8.11715H28.7279C28.5707 8.11715 28.4528 8.159 28.3742 8.24268ZM28.5258 6.41841C28.5932 6.52441 28.7223 6.57741 28.9131 6.57741H31.254C31.4337 6.57741 31.5628 6.5272 31.6414 6.42678C31.72 6.32636 31.7256 6.19247 31.6582 6.0251C31.5796 5.71269 31.4252 5.45607 31.1951 5.25523C30.9649 5.05439 30.7039 4.95397 30.412 4.95397H29.8225C29.5643 4.95397 29.3173 5.04881 29.0815 5.23849C28.8458 5.42817 28.6605 5.6848 28.5258 6.00837C28.4584 6.17573 28.4584 6.31241 28.5258 6.41841ZM37.7813 5.49791C37.5399 5.68201 37.3547 5.92469 37.2256 6.22594C37.0964 6.5272 37.0319 6.84519 37.0319 7.17992V11.8494H34.8594V3.41423H37.0319V3.74895C37.0319 3.93863 37.0852 4.04742 37.1919 4.07531C37.2985 4.10321 37.4305 4.04463 37.5876 3.89958C37.7448 3.73222 37.9273 3.60948 38.135 3.53138C38.3427 3.45328 38.5925 3.41423 38.8844 3.41423H39.7938V5.22176H38.6486C38.3118 5.22176 38.0227 5.31381 37.7813 5.49791ZM42.167 8.24268C42.0884 8.32636 42.0659 8.44073 42.0996 8.58577C42.1445 8.85356 42.2343 9.10739 42.3691 9.34728C42.5038 9.58717 42.675 9.78522 42.8827 9.94142C43.0904 10.0976 43.3346 10.1757 43.6153 10.1757H44.2216C44.5696 10.1757 44.87 10.0642 45.1226 9.841C45.3752 9.61785 45.5352 9.33891 45.6025 9.00418H47.674C47.6178 9.57322 47.427 10.0837 47.1014 10.5356C46.7758 10.9874 46.3604 11.3417 45.8551 11.5983C45.3499 11.855 44.7998 11.9833 44.2047 11.9833H43.5985C42.8911 11.9833 42.2512 11.7992 41.6786 11.431C41.106 11.0628 40.6569 10.5439 40.3313 9.87448C40.0057 9.20502 39.8429 8.45188 39.8429 7.61506C39.8429 6.77824 40.0169 5.99442 40.365 5.33054C40.713 4.66667 41.1706 4.159 41.7375 3.80753C42.3045 3.45607 42.9136 3.28033 43.5648 3.28033H44.1879C44.8615 3.28033 45.4678 3.46165 46.0067 3.82427C46.5456 4.18689 46.9695 4.68061 47.2782 5.30544C47.587 5.93027 47.7413 6.61646 47.7413 7.36402C47.7413 7.5537 47.7301 7.75453 47.7077 7.96653V8.11715H42.5206C42.3635 8.11715 42.2456 8.159 42.167 8.24268ZM42.3185 6.41841C42.3859 6.52441 42.515 6.57741 42.7059 6.57741H45.0468C45.2264 6.57741 45.3555 6.5272 45.4341 6.42678C45.5127 6.32636 45.5183 6.19247 45.451 6.0251C45.3724 5.71269 45.218 5.45607 44.9878 5.25523C44.7577 5.05439 44.4966 4.95397 44.2047 4.95397H43.6153C43.3571 4.95397 43.1101 5.04881 42.8743 5.23849C42.6385 5.42817 42.4533 5.6848 42.3185 6.00837C42.2512 6.17573 42.2512 6.31241 42.3185 6.41841ZM51.2274 0.133891V2.07531H48.9034V0.133891H51.2274ZM48.9707 3.41423H51.1432V11.8494H48.9707V3.41423ZM52.541 14.6192C51.9797 14.1897 51.699 13.6123 51.699 12.887C51.699 12.5858 51.7495 12.304 51.8505 12.0418C51.9516 11.7796 52.0975 11.5537 52.2884 11.364C52.3782 11.2636 52.4287 11.166 52.44 11.0711C52.4512 10.9763 52.4175 10.8787 52.3389 10.7782C52.2267 10.6444 52.1424 10.4965 52.0863 10.3347C52.0302 10.1729 52.0021 10.0084 52.0021 9.841C52.0021 9.56206 52.0919 9.29986 52.2716 9.05439C52.4512 8.80893 52.6814 8.61925 52.962 8.48536C53.0968 8.41841 53.1754 8.34031 53.1978 8.25105C53.2203 8.16178 53.181 8.06137 53.0799 7.94979C52.8666 7.70432 52.7066 7.43375 52.6 7.13808C52.4933 6.8424 52.44 6.53278 52.44 6.2092C52.44 5.64017 52.5775 5.13529 52.8526 4.69456C53.1276 4.25384 53.4953 3.90795 53.9557 3.6569C54.416 3.40586 54.938 3.28033 55.5219 3.28033H56.0776C56.2348 3.28033 56.3808 3.28591 56.5155 3.29707C56.6502 3.30823 56.7906 3.32497 56.9365 3.34728C57.4754 3.39191 57.8796 3.41423 58.1491 3.41423H60.0521V4.90377H59.2774C59.109 4.90377 58.9995 4.94282 58.949 5.02092C58.8985 5.09902 58.9013 5.21618 58.9574 5.37238C59.036 5.51743 59.0893 5.66806 59.1174 5.82427C59.1455 5.98047 59.1595 6.14784 59.1595 6.32636C59.1595 6.83961 59.0164 7.31381 58.7301 7.74895C58.4438 8.1841 58.0677 8.5272 57.6017 8.77824C57.1358 9.02929 56.639 9.15481 56.1113 9.15481H54.6798C54.5114 9.15481 54.3683 9.19944 54.2504 9.2887C54.1325 9.37796 54.0735 9.5007 54.0735 9.6569C54.0735 9.81311 54.1353 9.93584 54.2588 10.0251C54.3823 10.1144 54.5395 10.159 54.7303 10.159H57.307C58.1378 10.159 58.8002 10.3849 59.2942 10.8368C59.7882 11.2887 60.0352 11.8773 60.0352 12.6025C60.0352 13.1381 59.8921 13.6067 59.6058 14.0084C59.3195 14.41 58.9294 14.7197 58.4354 14.9372C57.9414 15.1548 57.3856 15.2636 56.7681 15.2636H54.8819C53.8827 15.2636 53.1024 15.0488 52.541 14.6192ZM57.627 13.3222C57.8066 13.1548 57.8964 12.9317 57.8964 12.6527C57.8964 12.3961 57.8094 12.1897 57.6354 12.0335C57.4614 11.8773 57.2228 11.7992 56.9197 11.7992H54.8482C54.4777 11.7992 54.2195 11.8884 54.0735 12.0669C53.9276 12.2455 53.8546 12.4519 53.8546 12.6862C53.8546 12.954 53.9472 13.1688 54.1325 13.3305C54.3177 13.4923 54.5788 13.5732 54.9156 13.5732H56.8691C57.1947 13.5732 57.4473 13.4895 57.627 13.3222ZM56.5576 7.29707C56.7204 7.17434 56.8439 7.01813 56.9281 6.82845C57.0123 6.63877 57.0544 6.43236 57.0544 6.2092C57.0544 5.99721 57.0123 5.79637 56.9281 5.60669C56.8439 5.41702 56.7204 5.26081 56.5576 5.13808C56.3948 5.01534 56.2123 4.95397 56.0103 4.95397H55.5724C55.3928 4.95397 55.2272 5.00697 55.0756 5.11297C54.924 5.21897 54.7921 5.36681 54.6798 5.55649C54.5675 5.74616 54.5114 5.96374 54.5114 6.2092C54.5114 6.45467 54.5675 6.68898 54.6798 6.87866C54.7921 7.06834 54.924 7.21618 55.0756 7.32218C55.2272 7.42817 55.3871 7.48117 55.5555 7.48117H56.0103C56.2123 7.48117 56.3948 7.4198 56.5576 7.29707ZM60.7903 3.41423H62.9628V3.76569C62.9628 3.94421 63.0217 4.053 63.1396 4.09205C63.2575 4.1311 63.4062 4.0781 63.5859 3.93305C63.8104 3.73222 64.0546 3.57322 64.3185 3.45607C64.5823 3.33891 64.8658 3.28033 65.1689 3.28033H65.7752C66.258 3.28033 66.7043 3.42259 67.1141 3.70711C67.5239 3.99163 67.8523 4.37936 68.0993 4.87029C68.3463 5.36123 68.4698 5.90795 68.4698 6.51046V11.8494H66.2973V6.86192C66.2973 6.56067 66.2468 6.28173 66.1457 6.0251C66.0447 5.76848 65.8987 5.56764 65.7078 5.42259C65.517 5.27755 65.2924 5.20502 65.0342 5.20502H64.4953C64.2034 5.20502 63.9424 5.29986 63.7122 5.48954C63.482 5.67922 63.2996 5.93584 63.1649 6.25941C63.0301 6.58298 62.9628 6.94561 62.9628 7.34728V11.8494H60.7903V3.41423ZM74.162 2.25941C74.0722 2.17015 73.9487 2.12552 73.7915 2.12552H71.0633V0.133891H79.8374V2.12552H77.1429C76.9857 2.12552 76.8622 2.17015 76.7724 2.25941C76.6825 2.34868 76.6376 2.47141 76.6376 2.62761V11.8494H74.2967V2.62761C74.2967 2.47141 74.2518 2.34868 74.162 2.25941ZM81.1707 8.24268C81.0921 8.32636 81.0696 8.44073 81.1033 8.58577C81.1482 8.85356 81.238 9.10739 81.3728 9.34728C81.5075 9.58717 81.6787 9.78522 81.8864 9.94142C82.0941 10.0976 82.3383 10.1757 82.619 10.1757H83.2253C83.5733 10.1757 83.8736 10.0642 84.1262 9.841C84.3789 9.61785 84.5389 9.33891 84.6062 9.00418H86.6777C86.6215 9.57322 86.4307 10.0837 86.1051 10.5356C85.7795 10.9874 85.3641 11.3417 84.8588 11.5983C84.3536 11.855 83.8035 11.9833 83.2084 11.9833H82.6021C81.8948 11.9833 81.2549 11.7992 80.6823 11.431C80.1097 11.0628 79.6606 10.5439 79.335 9.87448C79.0094 9.20502 78.8466 8.45188 78.8466 7.61506C78.8466 6.77824 79.0206 5.99442 79.3687 5.33054C79.7167 4.66667 80.1742 4.159 80.7412 3.80753C81.3082 3.45607 81.9173 3.28033 82.5685 3.28033H83.1916C83.8652 3.28033 84.4715 3.46165 85.0104 3.82427C85.5493 4.18689 85.9731 4.68061 86.2819 5.30544C86.5906 5.93027 86.745 6.61646 86.745 7.36402C86.745 7.5537 86.7338 7.75453 86.7113 7.96653V8.11715H81.5243C81.3671 8.11715 81.2492 8.159 81.1707 8.24268ZM81.3222 6.41841C81.3896 6.52441 81.5187 6.57741 81.7096 6.57741H84.0505C84.2301 6.57741 84.3592 6.5272 84.4378 6.42678C84.5164 6.32636 84.522 6.19247 84.4547 6.0251C84.3761 5.71269 84.2217 5.45607 83.9915 5.25523C83.7614 5.05439 83.5003 4.95397 83.2084 4.95397H82.619C82.3608 4.95397 82.1138 5.04881 81.878 5.23849C81.6422 5.42817 81.457 5.6848 81.3222 6.00837C81.2549 6.17573 81.2549 6.31241 81.3222 6.41841ZM89.2515 11.4059C88.6789 11.0209 88.2383 10.4965 87.9295 9.83264C87.6208 9.16876 87.4664 8.43515 87.4664 7.6318C87.4664 6.82845 87.6236 6.08089 87.9379 5.42259C88.2523 4.7643 88.6986 4.24268 89.2768 3.85774C89.855 3.4728 90.5258 3.28033 91.2893 3.28033H91.8282C92.4681 3.28033 93.0463 3.42817 93.5628 3.72385C94.0793 4.01953 94.4891 4.42957 94.7922 4.95397C95.0953 5.47838 95.2637 6.07531 95.2974 6.74477H93.1249C93.08 6.27615 92.9369 5.89121 92.6955 5.58996C92.4541 5.2887 92.1538 5.13808 91.7945 5.13808H91.2893C90.9525 5.13808 90.6634 5.25244 90.422 5.48117C90.1806 5.7099 89.9953 6.01116 89.8662 6.38494C89.7371 6.75872 89.6725 7.17434 89.6725 7.6318C89.6725 8.08926 89.7371 8.50767 89.8662 8.88703C89.9953 9.26639 90.1778 9.56764 90.4135 9.79079C90.6493 10.0139 90.93 10.1255 91.2556 10.1255H91.7608C92.1313 10.1255 92.4373 9.98047 92.6787 9.69038C92.92 9.40028 93.08 9.02092 93.1586 8.5523H95.3143C95.2469 9.19944 95.056 9.78522 94.7417 10.3096C94.4273 10.834 94.0175 11.2441 93.5123 11.5397C93.0071 11.8354 92.4288 11.9833 91.7777 11.9833H91.2556C90.4921 11.9833 89.8241 11.7908 89.2515 11.4059ZM96.3205 0.133891H98.493V3.76569C98.493 3.94421 98.5519 4.053 98.6698 4.09205C98.7877 4.1311 98.9365 4.0781 99.1161 3.93305C99.3407 3.73222 99.5849 3.57322 99.8487 3.45607C100.113 3.33891 100.396 3.28033 100.699 3.28033H101.305C101.788 3.28033 102.235 3.42259 102.644 3.70711C103.054 3.99163 103.382 4.37936 103.629 4.87029C103.876 5.36123 104 5.90795 104 6.51046V11.8494H101.828V6.86192C101.828 6.56067 101.777 6.28173 101.676 6.0251C101.575 5.76848 101.429 5.56764 101.238 5.42259C101.047 5.27755 100.823 5.20502 100.564 5.20502H100.026C99.7336 5.20502 99.4726 5.29986 99.2424 5.48954C99.0123 5.67922 98.8298 5.93584 98.6951 6.25941C98.5604 6.58298 98.493 6.94561 98.493 7.34728V11.8494H96.3205V0.133891ZM4.1934 16.8703H6.56798L10.7782 28.5858H8.31944L7.57844 26.41C7.5223 26.2538 7.44652 26.1423 7.35108 26.0753C7.25565 26.0084 7.12934 25.9749 6.97216 25.9749H3.78922C3.47485 25.9749 3.27276 26.1199 3.18294 26.41L2.44194 28.5858H0L4.1934 16.8703ZM4.10078 23.841C4.17375 23.9247 4.28322 23.9665 4.42917 23.9665H6.31536C6.46132 23.9665 6.56798 23.9247 6.63534 23.841C6.70271 23.7573 6.71393 23.6374 6.66902 23.4812L5.65857 20.5188C5.62488 20.3961 5.57155 20.3152 5.49858 20.2762C5.4256 20.2371 5.34981 20.2399 5.27122 20.2845C5.19263 20.3291 5.1365 20.4073 5.10281 20.5188L4.07551 23.4812C4.01938 23.6374 4.0278 23.7573 4.10078 23.841ZM11.922 31.3556C11.3606 30.9261 11.08 30.3487 11.08 29.6234C11.08 29.3222 11.1305 29.0404 11.2315 28.7782C11.3326 28.516 11.4785 28.2901 11.6694 28.1004C11.7592 28 11.8097 27.9024 11.821 27.8075C11.8322 27.7127 11.7985 27.6151 11.7199 27.5146C11.6076 27.3808 11.5234 27.2329 11.4673 27.0711C11.4112 26.9093 11.3831 26.7448 11.3831 26.5774C11.3831 26.2985 11.4729 26.0363 11.6525 25.7908C11.8322 25.5453 12.0623 25.3556 12.343 25.2218C12.4778 25.1548 12.5563 25.0767 12.5788 24.9874C12.6013 24.8982 12.562 24.7978 12.4609 24.6862C12.2476 24.4407 12.0876 24.1702 11.9809 23.8745C11.8743 23.5788 11.821 23.2692 11.821 22.9456C11.821 22.3766 11.9585 21.8717 12.2336 21.431C12.5086 20.9902 12.8763 20.6444 13.3366 20.3933C13.797 20.1423 14.319 20.0167 14.9029 20.0167H15.4586C15.6158 20.0167 15.7617 20.0223 15.8965 20.0335C16.0312 20.0446 16.1715 20.0614 16.3175 20.0837C16.8564 20.1283 17.2606 20.1506 17.53 20.1506H19.4331V21.6402H18.6584C18.49 21.6402 18.3805 21.6792 18.33 21.7573C18.2795 21.8354 18.2823 21.9526 18.3384 22.1088C18.417 22.2538 18.4703 22.4045 18.4984 22.5607C18.5265 22.7169 18.5405 22.8842 18.5405 23.0628C18.5405 23.576 18.3974 24.0502 18.1111 24.4854C17.8248 24.9205 17.4486 25.2636 16.9827 25.5146C16.5168 25.7657 16.02 25.8912 15.4923 25.8912H14.0608C13.8924 25.8912 13.7492 25.9358 13.6314 26.0251C13.5135 26.1144 13.4545 26.2371 13.4545 26.3933C13.4545 26.5495 13.5163 26.6722 13.6398 26.7615C13.7633 26.8508 13.9205 26.8954 14.1113 26.8954H16.688C17.5188 26.8954 18.1812 27.1213 18.6752 27.5732C19.1692 28.0251 19.4162 28.6137 19.4162 29.3389C19.4162 29.8745 19.2731 30.3431 18.9868 30.7448C18.7005 31.1464 18.3103 31.4561 17.8163 31.6736C17.3223 31.8912 16.7666 32 16.1491 32H14.2629C13.2637 32 12.4834 31.7852 11.922 31.3556ZM17.008 30.0586C17.1876 29.8912 17.2774 29.6681 17.2774 29.3891C17.2774 29.1325 17.1904 28.9261 17.0164 28.7699C16.8424 28.6137 16.6038 28.5356 16.3007 28.5356H14.2292C13.8587 28.5356 13.6005 28.6248 13.4545 28.8033C13.3086 28.9819 13.2356 29.1883 13.2356 29.4226C13.2356 29.6904 13.3282 29.9052 13.5135 30.0669C13.6987 30.2287 13.9598 30.3096 14.2966 30.3096H16.2501C16.5757 30.3096 16.8283 30.2259 17.008 30.0586ZM15.9386 24.0335C16.1014 23.9107 16.2249 23.7545 16.3091 23.5649C16.3933 23.3752 16.4354 23.1688 16.4354 22.9456C16.4354 22.7336 16.3933 22.5328 16.3091 22.3431C16.2249 22.1534 16.1014 21.9972 15.9386 21.8745C15.7758 21.7517 15.5933 21.6904 15.3912 21.6904H14.9534C14.7737 21.6904 14.6081 21.7434 14.4566 21.8494C14.305 21.9554 14.1731 22.1032 14.0608 22.2929C13.9485 22.4826 13.8924 22.7001 13.8924 22.9456C13.8924 23.1911 13.9485 23.4254 14.0608 23.6151C14.1731 23.8047 14.305 23.9526 14.4566 24.0586C14.6081 24.1646 14.7681 24.2176 14.9365 24.2176H15.3912C15.5933 24.2176 15.7758 24.1562 15.9386 24.0335ZM21.9059 24.9791C21.8273 25.0628 21.8048 25.1771 21.8385 25.3222C21.8834 25.59 21.9733 25.8438 22.108 26.0837C22.2427 26.3236 22.4139 26.5216 22.6216 26.6778C22.8293 26.834 23.0735 26.9121 23.3542 26.9121H23.9605C24.3085 26.9121 24.6089 26.8006 24.8615 26.5774C25.1141 26.3543 25.2741 26.0753 25.3414 25.7406H27.4129C27.3567 26.3096 27.1659 26.8201 26.8403 27.272C26.5147 27.7238 26.0993 28.0781 25.5941 28.3347C25.0888 28.5914 24.5387 28.7197 23.9436 28.7197H23.3374C22.6301 28.7197 21.9901 28.5356 21.4175 28.1674C20.8449 27.7992 20.3958 27.2803 20.0702 26.6109C19.7446 25.9414 19.5818 25.1883 19.5818 24.3515C19.5818 23.5146 19.7559 22.7308 20.1039 22.0669C20.452 21.4031 20.9095 20.8954 21.4764 20.5439C22.0434 20.1925 22.6525 20.0167 23.3037 20.0167H23.9268C24.6004 20.0167 25.2067 20.198 25.7456 20.5607C26.2845 20.9233 26.7084 21.417 27.0171 22.0418C27.3259 22.6667 27.4802 23.3529 27.4802 24.1004C27.4802 24.2901 27.469 24.4909 27.4466 24.7029V24.8536H22.2596C22.1024 24.8536 21.9845 24.8954 21.9059 24.9791ZM22.0575 23.1548C22.1248 23.2608 22.2539 23.3138 22.4448 23.3138H24.7857C24.9653 23.3138 25.0944 23.2636 25.173 23.1632C25.2516 23.0628 25.2572 22.9289 25.1899 22.7615C25.1113 22.4491 24.9569 22.1925 24.7268 21.9916C24.4966 21.7908 24.2356 21.6904 23.9436 21.6904H23.3542C23.096 21.6904 22.849 21.7852 22.6132 21.9749C22.3774 22.1646 22.1922 22.4212 22.0575 22.7448C21.9901 22.9121 21.9901 23.0488 22.0575 23.1548ZM28.5581 20.1506H30.7306V20.5021C30.7306 20.6806 30.7895 20.7894 30.9074 20.8285C31.0253 20.8675 31.174 20.8145 31.3537 20.6695C31.5782 20.4686 31.8224 20.3096 32.0863 20.1925C32.3501 20.0753 32.6336 20.0167 32.9367 20.0167H33.543C34.0258 20.0167 34.4721 20.159 34.8819 20.4435C35.2917 20.728 35.6201 21.1158 35.8671 21.6067C36.1141 22.0976 36.2376 22.6443 36.2376 23.2469V28.5858H34.0651V23.5983C34.0651 23.2971 34.0145 23.0181 33.9135 22.7615C33.8125 22.5049 33.6665 22.304 33.4756 22.159C33.2848 22.0139 33.0602 21.9414 32.802 21.9414H32.2631C31.9712 21.9414 31.7101 22.0363 31.48 22.2259C31.2498 22.4156 31.0674 22.6722 30.9326 22.9958C30.7979 23.3194 30.7306 23.682 30.7306 24.0837V28.5858H28.5581V20.1506ZM39.0247 28.1423C38.4521 27.7573 38.0115 27.2329 37.7027 26.569C37.394 25.9052 37.2396 25.1715 37.2396 24.3682C37.2396 23.5649 37.3968 22.8173 37.7111 22.159C38.0255 21.5007 38.4718 20.9791 39.05 20.5941C39.6282 20.2092 40.299 20.0167 41.0625 20.0167H41.6014C42.2414 20.0167 42.8196 20.1646 43.336 20.4603C43.8525 20.7559 44.2623 21.166 44.5654 21.6904C44.8686 22.2148 45.037 22.8117 45.0706 23.4812H42.8982C42.8533 23.0126 42.7101 22.6276 42.4687 22.3264C42.2273 22.0251 41.927 21.8745 41.5677 21.8745H41.0625C40.7257 21.8745 40.4366 21.9888 40.1952 22.2176C39.9538 22.4463 39.7685 22.7476 39.6394 23.1213C39.5103 23.4951 39.4458 23.9107 39.4458 24.3682C39.4458 24.8257 39.5103 25.2441 39.6394 25.6234C39.7685 26.0028 39.951 26.304 40.1868 26.5272C40.4225 26.7503 40.7032 26.8619 41.0288 26.8619H41.534C41.9045 26.8619 42.2105 26.7169 42.4519 26.4268C42.6933 26.1367 42.8532 25.7573 42.9318 25.2887H45.0875C45.0201 25.9358 44.8293 26.5216 44.5149 27.046C44.2005 27.5704 43.7907 27.9805 43.2855 28.2762C42.7803 28.5718 42.2021 28.7197 41.5509 28.7197H41.0288C40.2654 28.7197 39.5973 28.5272 39.0247 28.1423ZM47.5926 29.9331C47.7722 29.7601 47.9013 29.5537 47.9799 29.3138C48.0585 29.0739 48.0978 28.8424 48.0978 28.6192C48.0978 28.4519 48.0838 28.2901 48.0557 28.1339C48.0276 27.9777 47.9687 27.7824 47.8789 27.5481V27.5314L45.1675 20.1506H47.3905L49.0577 25.0879C49.1139 25.2329 49.1925 25.3054 49.2935 25.3054C49.3946 25.3054 49.4675 25.2329 49.5124 25.0879L51.1629 20.1506H53.3859L49.8493 29.8912C49.5798 30.6165 49.2262 31.1492 48.7883 31.4895C48.3504 31.8298 47.8059 32 47.1547 32H45.9758V30.1925H46.9021C47.1828 30.1925 47.4129 30.106 47.5926 29.9331Z"/></svg>
